<?xml version="1.0" encoding="UTF-8" standalone="no"?>
<!-- Created with Inkscape (http://www.inkscape.org/) -->

<svg
   version="1.1"
   id="svg1"
   width="184.91029"
   height="180.45818"
   viewBox="0 0 184.91029 180.45818"
   xmlns="http://www.w3.org/2000/svg"
   xmlns:svg="http://www.w3.org/2000/svg">
  <defs
     id="defs1" />
  <g
     id="g1"
     transform="translate(-22.824623,-23.984511)">
    <path
      fill="currentColor"
       style="fill:#000000"
       d="m 110.34054,203.94599 c -1.55186,-1.55187 -0.49931,-7.94704 2.49738,-15.17369 9.60488,-23.16259 19.73175,-35.15001 57.36473,-67.90402 29.99468,-26.105971 38.48471,-44.833137 29.2545,-64.5291 -17.94948,-38.301679 -71.4292,-26.778869 -81.23335,17.502644 -0.98519,4.449713 -2.84404,3.175784 -6.57076,-4.503158 -21.038407,-43.349795 -83.5,-34.573656 -83.5,11.732131 0,21.648993 9.906586,32.728493 52.860841,59.119383 19.523799,11.99533 31.132609,23.49938 29.936559,29.66642 -0.82711,4.26473 -1.85974,4.13971 -5.91914,-0.71662 C 98.585656,161.42892 88.763062,154.34343 64.65304,140.01328 26.958384,117.60891 14.131007,87.950787 28.65839,56.79021 c 16.204856,-34.75868 65.365952,-33.008055 84.71052,3.016539 1.86424,3.471691 2.31522,3.821728 2.8419,2.2058 16.34981,-50.163342 79.54239,-50.891052 90.11456,-1.037736 5.48658,25.872119 -4.10682,42.454117 -45.42693,78.519537 -26.86674,23.45008 -38.38848,38.17842 -45.57845,58.26335 -2.12687,5.94134 -3.50888,7.65885 -4.97945,6.18829 z"
       id="path1" />
  </g>
</svg>
